<?xml version="1.0" encoding="UTF-8"?>
<svg width="20px" height="21px" viewBox="0 0 20 21" version="1.1" xmlns="http://www.w3.org/2000/svg" xmlns:xlink="http://www.w3.org/1999/xlink">
    <!-- Generator: Sketch 63.1 (92452) - https://sketch.com -->
    <title>confirm password</title>
    <desc>Created with Sketch.</desc>
    <defs>
        <polygon id="path-1" points="0.3754 0.189 10.074 0.189 10.074 7 0.3754 7"></polygon>
    </defs>
    <g id="scheduling" stroke="none" stroke-width="1" fill="none" fill-rule="evenodd">
        <g id="Sign-Up" transform="translate(-635.000000, -577.000000)">
            <g id="confirm-password" transform="translate(635.000000, 577.000000)">
                <path d="M7.0514,10.4156 C6.0904,10.4156 5.3084,11.1846 5.3084,12.1286 C5.3084,12.7066 5.5984,13.2266 6.0884,13.5506 L6.0884,16.3726 L7.9874,16.3726 L7.9874,13.5846 C8.4984,13.2826 8.8214,12.7276 8.8214,12.1216 C8.7914,11.1646 8.0124,10.4156 7.0514,10.4156" id="Fill-1" fill="#7C7C7C"></path>
                <path d="M5.3465,3.1469 C5.3465,2.2569 6.0835,1.5339 6.9895,1.5339 C7.8955,1.5339 8.6315,2.2569 8.6315,3.1469 L8.6315,6.3879 C8.1085,6.2669 7.5705,6.1989 7.0255,6.1989 C6.4525,6.1989 5.8915,6.2699 5.3465,6.4039 L5.3465,3.1469 Z M7.0255,18.4169 C4.0415,18.4169 1.6125,16.0319 1.6125,13.0999 C1.6125,10.1679 4.0415,7.7829 7.0255,7.7829 C10.0095,7.7829 12.4365,10.1679 12.4365,13.0999 C12.4365,13.8339 12.2845,14.5329 12.0095,15.1699 L13.1735,16.3329 C13.6985,15.3679 13.9995,14.2679 13.9995,13.0999 C13.9995,11.5839 13.5115,10.1609 12.5905,8.9809 C11.9895,8.2269 11.5655,7.8409 11.5455,7.8249 L11.5395,7.8179 C11.1255,7.4749 10.6715,7.1879 10.1935,6.9489 L10.1935,3.1469 C10.1935,1.4119 8.7565,-0.0001 6.9895,-0.0001 C5.2235,-0.0001 3.7855,1.4119 3.7855,3.1469 L3.7855,6.9909 C3.3405,7.2219 2.9105,7.4949 2.5065,7.8229 C2.4765,7.8509 1.7445,8.4929 1.4035,8.9859 C0.4995,10.1809 0.0005,11.6419 0.0005,13.0999 C0.0005,16.8909 3.1405,19.9769 6.9995,19.9769 C8.2045,19.9769 9.3395,19.6759 10.3305,19.1459 L9.1655,17.9819 C8.5085,18.2609 7.7855,18.4169 7.0255,18.4169 L7.0255,18.4169 Z" id="Fill-3" fill="#7C7C7C"></path>
                <g id="Group-7" transform="translate(9.000000, 13.285500)">
                    <mask id="mask-2" fill="white">
                        <use xlink:href="#path-1"></use>
                    </mask>
                    <g id="Clip-6"></g>
                    <polygon id="Fill-5" fill="#7C7C7C" mask="url(#mask-2)" points="10.0744 1.25 9.0134 0.189 4.3224 4.881 1.4364 1.995 0.3754 3.056 3.4594 6.139 3.4614 6.137 4.3244 7"></polygon>
                </g>
            </g>
        </g>
    </g>
</svg>