<?xml version="1.0" encoding="utf-8"?>
<!-- Generator: Adobe Illustrator 18.0.0, SVG Export Plug-In . SVG Version: 6.00 Build 0)  -->
<!DOCTYPE svg PUBLIC "-//W3C//DTD SVG 1.1//EN" "http://www.w3.org/Graphics/SVG/1.1/DTD/svg11.dtd">
<svg version="1.1" id="Layer_1" xmlns="http://www.w3.org/2000/svg" xmlns:xlink="http://www.w3.org/1999/xlink" x="0px" y="0px"
     viewBox="0 0 134 45" style="enable-background:new 0 0 134 45;" xml:space="preserve">
<style type="text/css">
	.st0{fill:#334C94;}
	.st1{fill:#FFFFFF;}
</style>
    <path class="st0" d="M131.1,45H3.3c-1.7,0-3.1-1.4-3.1-3.1V3.1C0.2,1.4,1.6,0,3.3,0h127.8c1.7,0,3.1,1.4,3.1,3.1v38.8
	C134.2,43.6,132.8,45,131.1,45z"/>
    <g>
	<path class="st1" d="M73.3,14.4C72.6,14.1,72,14,71.4,14c-1.6,0-2.4,0.9-2.4,2.7v1.8h3.8v3.8h-3.8v12.7h-5.1V22.2h-2.8v-3.8h2.8v-2
		c0-1.9,0.6-3.4,1.8-4.5c1.2-1.1,2.9-1.7,5-1.7c1,0,1.9,0.1,2.6,0.3V14.4z"/>
</g>
</svg>
