<?xml version="1.0" encoding="UTF-8"?>
<svg width="56px" height="56px" viewBox="0 0 56 56" version="1.1" xmlns="http://www.w3.org/2000/svg" xmlns:xlink="http://www.w3.org/1999/xlink">
    <!-- Generator: Sketch 63.1 (92452) - https://sketch.com -->
    <title>Group</title>
    <desc>Created with Sketch.</desc>
    <defs>
        <polygon id="path-1" points="0.929 0.477 17.525 0.477 17.525 17.0728 0.929 17.0728"></polygon>
        <polygon id="path-3" points="0 0.0262 22.9745 0.0262 22.9745 23 0 23"></polygon>
    </defs>
    <g id="scheduling" stroke="none" stroke-width="1" fill="none" fill-rule="evenodd">
        <g id="History-detail" transform="translate(-518.000000, -409.000000)">
            <g id="Group" transform="translate(518.000000, 409.000000)">
                <g id="Group-6-Copy" fill="#FFFFFF" opacity="0.0980515253">
                    <circle id="Oval-Copy" cx="28" cy="28" r="28"></circle>
                </g>
                <g id="Group-9" transform="translate(17.000000, 14.000000)">
                    <g id="Group-3" transform="translate(8.000000, 0.523000)">
                        <mask id="mask-2" fill="white">
                            <use xlink:href="#path-1"></use>
                        </mask>
                        <g id="Clip-2"></g>
                        <path d="M3.489,11.9528 C2.075,11.9528 0.929,13.0988 0.929,14.5128 C0.929,15.9268 2.075,17.0728 3.489,17.0728 C4.902,17.0728 6.048,15.9268 6.048,14.5128 C6.048,14.0278 5.905,13.5798 5.671,13.1938 L12.287,6.5788 L14.636,6.5588 L17.525,3.6698 L14.662,3.3398 L14.332,0.4768 L11.442,3.3648 L11.422,5.7148 L4.807,12.3298 C4.42,12.0948 3.973,11.9528 3.489,11.9528" id="Fill-1" fill="#29AAE3" mask="url(#mask-2)"></path>
                    </g>
                    <g id="Group-6" transform="translate(0.000000, 3.523000)">
                        <mask id="mask-4" fill="white">
                            <use xlink:href="#path-3"></use>
                        </mask>
                        <g id="Clip-5"></g>
                        <path d="M19.2015,6.2302 C20.2335,7.7352 20.8445,9.5532 20.8445,11.5122 C20.8445,16.6692 16.6465,20.8662 11.4895,20.8662 C6.3305,20.8662 2.1345,16.6692 2.1345,11.5122 C2.1345,6.3542 6.3305,2.1572 11.4895,2.1572 C13.4475,2.1572 15.2655,2.7652 16.7695,3.7992 L18.2915,2.2782 C16.3835,0.8692 14.0355,0.0262 11.4885,0.0262 C5.1525,0.0262 -0.0005,5.1782 -0.0005,11.5132 C-0.0005,17.8482 5.1525,23.0002 11.4885,23.0002 C17.8215,23.0002 22.9745,17.8482 22.9745,11.5132 C22.9745,8.9652 22.1315,6.6172 20.7225,4.7092 L19.2015,6.2302 Z" id="Fill-4" fill="#29AAE3" mask="url(#mask-4)"></path>
                    </g>
                    <path d="M11.489,9.49 C12.391,9.49 13.242,9.713 13.996,10.095 L15.247,8.845 C14.149,8.176 12.866,7.784 11.489,7.784 C7.49,7.784 4.237,11.036 4.237,15.035 C4.237,19.034 7.49,22.286 11.489,22.286 C15.487,22.286 18.74,19.034 18.74,15.035 C18.74,13.658 18.347,12.374 17.678,11.276 L16.428,12.527 C16.812,13.282 17.033,14.131 17.033,15.035 C17.033,18.093 14.545,20.581 11.488,20.581 C8.43,20.581 5.942,18.093 5.942,15.035 C5.942,11.977 8.431,9.49 11.489,9.49" id="Fill-7" fill="#29AAE3"></path>
                </g>
            </g>
        </g>
    </g>
</svg>