<?xml version="1.0" encoding="UTF-8"?>
<svg width="134px" height="45px" viewBox="0 0 134 45" version="1.1" xmlns="http://www.w3.org/2000/svg" xmlns:xlink="http://www.w3.org/1999/xlink">
    <!-- Generator: Sketch 63.1 (92452) - https://sketch.com -->
    <title>sign in with facebook copy</title>
    <desc>Created with Sketch.</desc>
    <g id="scheduling" stroke="none" stroke-width="1" fill="none" fill-rule="evenodd">
        <g id="Sign-In" transform="translate(-774.000000, -683.000000)">
            <g id="Group" transform="translate(618.000000, 683.000000)">
                <g id="sign-in-with-facebook-copy" transform="translate(156.000000, 0.000000)">
                    <g id="Button">
                    <rect id="Rectangle-4-Copy-3" fill="#DC4E41" x="0" y="0" width="134" height="45" rx="5"></rect>
                    <path d="M67.1,21.8 L67.1,24.92 L72.261,24.92 C72.053,26.259 70.701,28.846 67.1,28.846 C63.993,28.846 61.458,26.272 61.458,23.1 C61.458,19.928 63.993,17.354 67.1,17.354 C68.868,17.354 70.051,18.108 70.727,18.758 L73.197,16.379 C71.611,14.897 69.557,14 67.1,14 C62.069,14 58,18.069 58,23.1 C58,28.131 62.069,32.2 67.1,32.2 C72.352,32.2 75.836,28.508 75.836,23.308 C75.836,22.71 75.771,22.255 75.693,21.8 L67.1,21.8 L67.1,21.8 Z" id="Shape" fill="#FFFFFF"></path>
                </g>
                </g>
            </g>
        </g>
    </g>
</svg>