<?xml version="1.0" encoding="UTF-8"?>
<svg width="21px" height="21px" viewBox="0 0 21 21" version="1.1" xmlns="http://www.w3.org/2000/svg" xmlns:xlink="http://www.w3.org/1999/xlink">
    <!-- Generator: Sketch 63.1 (92452) - https://sketch.com -->
    <title>Home</title>
    <desc>Created with Sketch.</desc>
    <g id="scheduling" stroke="none" stroke-width="1" fill="none" fill-rule="evenodd">
        <g id="Survey" transform="translate(-381.000000, -36.000000)" fill="#29AAE3" fill-rule="nonzero" stroke="#29AAE3" stroke-width="0.5">
            <g id="Group-4" transform="translate(382.000000, 35.000000)">
                <g id="Home" transform="translate(0.000000, 1.400000)">
                    <path d="M9.79998214,0.175 C10.2715408,0.175 10.725577,0.33068095 11.0937696,0.616465906 L11.2132274,0.71651114 L18.272914,7.09502125 C18.9591751,7.71502209 19.3712722,8.57912644 19.4201037,9.49034753 L19.425,9.67316161 L19.425,18.0681623 C19.425,19.1646859 18.5514242,20.0590297 17.4576238,20.1215127 L17.3352174,20.125 L12.6969407,20.125 C11.5611345,20.125 10.6261083,19.2493523 10.5607694,18.1429912 L10.5571225,18.0191455 L10.5571225,13.3887854 C10.5571225,12.9895558 10.2195543,12.6592551 9.79998214,12.6592551 C9.40841169,12.6592551 9.0882505,12.9469864 9.04730265,13.3099366 L9.04287752,13.3887854 L9.04287752,18.0191455 C9.04287752,19.1417118 8.14841579,20.0574512 7.02839971,20.1214293 L6.90305926,20.125 L2.26474693,20.125 C1.15553287,20.125 0.242372569,19.2698205 0.178561647,18.1891346 L0.175,18.0681623 L0.175,9.67316161 C0.175,8.75652641 0.544219259,7.87387432 1.19351348,7.22221912 L1.32708025,7.09502641 L8.38688553,0.71667541 C8.77343281,0.367307069 9.2758223,0.175 9.79998214,0.175 Z M10.5094813,1.49576804 C10.3161134,1.32121753 10.0646439,1.225 9.79998214,1.225 C9.5730926,1.225 9.35603581,1.29567892 9.17705373,1.42577375 L9.09086634,1.49572035 L2.03098069,7.87414398 C1.55520526,8.30397999 1.26806003,8.90060587 1.22946671,9.52791519 L1.225,9.67316161 L1.225,18.0681623 C1.225,18.5878678 1.63638474,19.0211742 2.16444107,19.0703531 L2.26474693,19.075 L6.90305926,19.075 C7.47247556,19.075 7.93841871,18.6498263 7.98843272,18.1146636 L7.99287752,18.0191455 L7.99287752,13.3887854 C7.99287752,12.4044882 8.80559218,11.6092551 9.79998214,11.6092551 C10.7561532,11.6092551 11.5443366,12.3444857 11.6035516,13.2760854 L11.6071225,13.3887854 L11.6071225,18.0191455 C11.6071225,18.5661575 12.0414314,19.0217208 12.5975932,19.0706506 L12.6969407,19.075 L17.3352174,19.075 C17.8767162,19.075 18.3199762,18.6722552 18.3702508,18.1645203 L18.375,18.0681623 L18.375,9.67316161 C18.375,9.04194047 18.1218492,8.43093823 17.6754394,7.97623753 L17.5690184,7.87414313 L10.5094813,1.49576804 Z"></path>
                </g>
            </g>
        </g>
    </g>
</svg>