<?xml version="1.0" encoding="UTF-8"?>
<svg width="50px" height="51px" viewBox="0 0 50 51" version="1.1" xmlns="http://www.w3.org/2000/svg" xmlns:xlink="http://www.w3.org/1999/xlink">
    <!-- Generator: Sketch 63.1 (92452) - https://sketch.com -->
    <title>Group 92</title>
    <desc>Created with Sketch.</desc>
    <g id="scheduling" stroke="none" stroke-width="1" fill="none" fill-rule="evenodd">
        <g id="Sign-In" transform="translate(-63.000000, -41.000000)" fill="#FFFFFF">
            <g id="Group-92" transform="translate(63.000000, 41.000000)">
                <path d="M47.417698,31.6592441 C46.7153861,31.0299308 46.0073683,30.3961376 45.3402434,29.7984197 C45.1479041,29.6265316 44.9593688,29.4574729 44.775113,29.2926583 C44.6267574,29.1594392 44.481017,29.0292852 44.3390805,28.9019607 C42.8186729,27.5405314 41.6998241,26.5389117 41.6998241,26.5389117 L41.2314577,26.5389117 C41.2314577,26.5389117 41.1297009,26.3828213 40.9737373,26.1409047 C40.9497246,26.1036505 40.9247609,26.0649815 40.8983707,26.0241905 C40.8786375,25.9935383 40.8584288,25.9617072 40.8375069,25.9289329 C40.7847265,25.8466436 40.7283799,25.7586953 40.6696558,25.6660314 C40.6470696,25.6308992 40.6244834,25.5948239 40.601184,25.5585129 C40.5743183,25.5158356 40.5469771,25.4726867 40.5191604,25.4285947 C40.490155,25.3826164 40.4609118,25.3364023 40.4314309,25.2890093 C40.2961514,25.0742081 40.157068,24.8502112 40.0244038,24.6328164 C39.9956361,24.5858949 39.967344,24.5389735 39.9395273,24.4925236 C39.6318795,23.9836971 39.3767744,23.5335813 39.3251827,23.3616932 C39.32019,23.3458955 39.3175748,23.3324557 39.3161483,23.3216095 C39.3094913,23.2607767 39.2747799,23.0117865 39.222475,22.6427812 C39.205357,22.5208797 39.1863371,22.38601 39.1654151,22.2395868 C39.1292772,21.9844662 39.0881466,21.6963355 39.0439252,21.3853335 C38.7486404,19.31183 38.3133212,16.2536835 38.2610163,15.6840241 C38.2462758,15.5239253 38.1958729,15.3737295 38.1212196,15.2348514 C37.9669202,14.9471923 37.7094376,14.7092841 37.451004,14.5343307 C37.1685576,14.343344 36.8849226,14.2282803 36.7353782,14.2120111 C36.5594436,14.1924408 36.169059,13.9696229 35.7242298,13.7074287 C35.6688342,13.6748902 35.6124876,13.6414085 35.5554277,13.6076911 C35.1569597,13.3721407 34.7328147,13.1229148 34.390931,12.9703611 C34.2442396,12.9048126 33.9301726,12.75108 33.5133979,12.5428808 C33.1665214,12.3688706 32.7483202,12.157842 32.296834,11.9284221 C32.0265129,11.7909587 31.7435911,11.6468934 31.4573408,11.500706 C31.3617655,11.452134 31.2659525,11.4033263 31.1699017,11.3542827 C29.5382273,10.5203071 27.8739813,9.66251702 27.666426,9.55947846 C27.4220196,9.43852016 27.177851,9.19613198 26.8954046,9.13577073 C26.853323,9.12681085 26.8105281,9.12162356 26.7670199,9.12162356 C26.6338803,9.12162356 26.4917061,9.16783764 26.3374067,9.28808859 C25.7901075,9.71462576 26.1426899,10.6841785 26.1426899,10.6841785 L25.6740858,10.4516933 C25.6740858,10.4516933 25.6246339,10.4731499 25.5544978,10.514884 C25.5309606,10.5287954 25.5055214,10.5445931 25.4786558,10.5627486 C25.3928282,10.6205162 25.2960642,10.7009193 25.2202221,10.7992421 C25.2009644,10.824707 25.1819445,10.8501719 25.1660153,10.8775231 C25.077097,11.0319631 25.078999,11.2491221 25.1450933,11.4858514 C25.1553165,11.5223983 25.166253,11.5584736 25.1793292,11.5952562 C25.2318718,11.742151 25.3058119,11.8937615 25.4004362,12.0408921 C25.5193109,12.22622 26.0811128,12.5141149 26.6783394,12.7805533 C26.6907024,12.7859763 26.7035408,12.7913994 26.7161416,12.7972941 C26.830499,12.8477523 26.9458075,12.897739 27.059214,12.9458394 C27.168341,12.9918177 27.275566,13.0363812 27.378987,13.078587 C27.4353336,13.1019298 27.4904915,13.1243295 27.5439851,13.145786 C27.8280957,13.2601423 28.0637053,13.3506842 28.1906635,13.3987846 C28.2163405,13.4084518 28.2377379,13.4164685 28.2541426,13.4223632 C28.2779176,13.4313231 28.2921825,13.4367462 28.2921825,13.4367462 L27.8107399,13.5586476 L26.6110563,13.862576 L13.2735509,5.64495656 C16.6771717,3.72353511 20.6114494,2.62406422 24.7998811,2.62406422 C37.6880401,2.62406422 48.1735034,13.0227056 48.1735034,25.8046736 C48.1735034,27.8263042 47.9103148,29.7880451 47.417698,31.6592441 M32.9466032,17.1218481 C32.9463655,17.1319869 32.9461277,17.1418899 32.9456522,17.1520287 C32.9435125,17.2046091 32.9397085,17.2586041 32.9337647,17.3123633 C32.9330515,17.3199085 32.9321005,17.3274536 32.9313872,17.3349988 C32.9180733,17.4521845 32.8978646,17.5698418 32.8743274,17.6806613 L32.8738519,17.6830192 C32.8039535,18.0145345 32.7098048,18.2823876 32.7098048,18.2823876 L32.6168447,18.2128307 L32.5864128,18.1899594 L32.5538411,18.1654377 C32.5426669,18.1571852 32.5243602,18.1475179 32.502725,18.1371433 C32.4953548,18.1340781 32.4860826,18.129834 32.4779991,18.1260614 C32.4601679,18.1182804 32.4399592,18.1095564 32.4168975,18.1003607 C32.404059,18.0949376 32.3886053,18.0885714 32.3743403,18.0829125 C32.3450971,18.0708874 32.3125255,18.0576834 32.2773385,18.043772 C32.2395364,18.0282101 32.198168,18.0109977 32.1544221,17.9926064 L32.1541843,17.9926064 C32.1451499,17.9885981 32.1365909,17.9850613 32.1273187,17.9808171 C32.0809575,17.9612469 32.0319811,17.9393187 31.9806273,17.9159759 C31.962796,17.9074876 31.9435383,17.898292 31.9249939,17.8893321 C31.8855275,17.870705 31.8446346,17.8508989 31.8025529,17.8294424 C31.78068,17.8183604 31.7580938,17.8065711 31.7352698,17.7947818 C31.6915239,17.7719106 31.6468271,17.747153 31.6014169,17.7214523 C31.5797817,17.7094272 31.558622,17.6978737 31.5367491,17.6849055 C31.4689905,17.6455292 31.3998054,17.6035592 31.3287183,17.5573452 C31.3220613,17.553101 31.3151666,17.5479137 31.3087474,17.5436696 C31.2155496,17.4823652 31.1197366,17.4132798 31.0227348,17.3390072 C30.9554517,17.2871342 30.8872176,17.2317245 30.8189835,17.1730137 C30.8142285,17.1692411 30.8097113,17.1654686 30.8049563,17.1614602 C30.743617,17.1084083 30.6818021,17.0515838 30.620225,16.9926373 C30.6149945,16.98745 30.6100018,16.9829701 30.6047713,16.9782543 C30.5988276,16.9725955 30.5924083,16.9667008 30.5864646,16.9608062 C30.530118,16.905868 30.4737713,16.8469214 30.4179002,16.7865602 C30.4031598,16.7702909 30.3881816,16.755908 30.3736788,16.7398745 C30.3047315,16.663244 30.2360219,16.5835483 30.1682633,16.4981937 C30.1668368,16.4963074 30.1656481,16.4951285 30.1642216,16.4932422 C30.1028822,16.4161401 30.0420184,16.3430464 29.9811545,16.2727821 L29.980679,16.2723106 L29.9792525,16.2706601 C29.9103052,16.1912001 29.8420711,16.1169275 29.7743125,16.0454843 C29.763376,16.0339308 29.7522018,16.0228488 29.7410276,16.0112953 C29.6763597,15.944332 29.6119297,15.8799624 29.5484506,15.8198369 C29.5458353,15.8172433 29.5429823,15.8146496 29.5406048,15.8122918 C29.3989062,15.6788368 29.261487,15.56283 29.1295361,15.4614419 L29.1281096,15.4604988 C29.1281096,15.4604988 29.1271586,15.4595557 29.1264453,15.4590841 C29.0494145,15.3999018 28.9740479,15.3447278 28.9010588,15.2954485 L28.8991569,15.293798 L31.2236331,14.832836 L31.2243463,14.8335434 C31.2262483,14.8354297 31.3301448,14.9335167 31.4865839,15.0896072 L31.4880104,15.0905503 C31.5224841,15.1249751 31.5602863,15.1629367 31.5992772,15.2023129 C31.6121156,15.2152812 31.6256674,15.2291926 31.6392191,15.2428682 C31.6682245,15.2723414 31.6981809,15.3029936 31.7288506,15.3348248 C31.7435911,15.3499151 31.7585693,15.365477 31.7735475,15.3810389 C31.8144404,15.4234804 31.8565221,15.4673366 31.8993169,15.5126075 C31.9035964,15.5170875 31.9078759,15.5215674 31.9121554,15.5262831 C31.9580411,15.5746193 32.0044022,15.6248418 32.0507633,15.6755358 C32.0659793,15.691805 32.0807198,15.7085458 32.0959357,15.7250509 C32.1301716,15.7625409 32.1646453,15.8007382 32.1986435,15.8391714 C32.2136217,15.8566196 32.2285999,15.8733604 32.2435781,15.8901012 C32.2889883,15.9422099 32.3343984,15.9943187 32.3781443,16.0466632 C32.3781443,16.0466632 32.3814728,16.0504358 32.3828993,16.0523221 C32.4278339,16.1056097 32.4711043,16.1588974 32.5129482,16.2114777 C32.524598,16.2268038 32.5362477,16.2416584 32.5481352,16.2567487 C32.5785671,16.2958892 32.6078103,16.3345581 32.6361024,16.3725197 C32.6472767,16.3878458 32.6584509,16.4031719 32.6693874,16.4177906 C32.7416632,16.5191787 32.8032403,16.6149079 32.8498392,16.7016772 L32.8500769,16.701913 C32.8564962,16.7144096 32.8619644,16.7259631 32.8681459,16.7379882 C32.8838374,16.7695836 32.8971513,16.7997642 32.9080878,16.8285301 C32.9123673,16.8396121 32.9171223,16.8509298 32.9204508,16.861776 C32.932576,16.8987944 32.9416105,16.9336908 32.9437502,16.9645787 L32.9437502,16.9667008 C32.9475542,17.0162159 32.947792,17.0687962 32.9466032,17.1218481 M23.8091792,32.4198902 C23.7266802,32.4472414 23.6401394,32.4595023 23.5521721,32.4595023 C23.1998274,32.4595023 22.8191906,32.2663935 22.5094031,32.0907328 C22.2183978,31.9256824 20.048221,31.5748326 18.8154901,31.4343041 L21.9281057,28.8838051 C21.9281057,28.8838051 22.8957459,30.0080336 23.2549853,30.693464 C23.6147002,31.3786585 24.224052,32.2831343 23.8091792,32.4198902 M43.30915,39.9431194 C41.3472417,38.729528 39.1542409,37.7257863 36.8616231,36.5940127 L36.3927812,36.5940127 C36.3927812,36.5940127 35.8452443,36.361056 35.5328415,36.0509972 C35.2199633,35.7411742 33.2654252,33.7247309 32.4834673,32.4844957 C31.5707472,30.8082918 30.4007823,28.940158 29.7707463,27.4929026 C29.7697953,27.4898373 29.7469713,27.4455095 29.7469713,27.4455095 L29.7522018,27.4469243 C29.5318081,26.963091 29.1511713,26.3781056 28.5620282,26.224373 C27.5116512,25.9501537 19.800486,23.5104742 19.800486,23.5104742 C19.800486,23.5104742 19.0824828,22.3046638 18.5572943,22.1129696 C18.4576772,22.0764228 18.3654305,22.061804 18.2805539,22.061804 C17.9184615,22.061804 17.7004453,22.3317792 17.7004453,22.3317792 C17.7004453,22.3317792 16.1206003,21.4171647 15.1486806,21.4162215 L15.1398839,21.4162215 C15.0785446,21.4162215 15.0200582,21.4192867 14.9641871,21.4273035 C14.0243636,21.5647668 14.6327644,22.881161 14.6327644,22.881161 C14.6313379,22.881161 14.5930602,22.8823399 14.0236503,23.0169738 C13.443304,23.1539656 13.1670391,24.0862641 13.8577012,24.3602476 C14.5486011,24.6342311 19.2208529,25.8138693 19.2208529,25.8138693 L20.546306,27.0467951 C20.546306,27.0467951 16.1526965,31.3786585 16.5119359,32.0365019 C16.6286709,32.2498884 16.8378904,32.3225106 17.0680318,32.3225106 C17.1170082,32.3225106 17.1666978,32.3192096 17.2166252,32.3130791 C17.1895218,32.3974906 17.1754946,32.4729421 17.1754946,32.5300024 C17.1754946,32.8318087 17.7819934,34.1743751 20.0484587,34.4483586 C22.3153995,34.7225779 24.9147141,35.9008014 26.5727786,37.6826374 C28.2315564,39.4647093 29.667563,40.6990498 30.4414374,41.1378479 C31.2155496,41.5764102 33.1503545,42.6183492 33.1503545,42.6183492 L31.1049961,47.387596 L31.9485311,47.8747302 C29.694191,48.5948211 27.2924462,48.985283 24.7998811,48.985283 C11.9117221,48.985283 1.4264966,38.5866416 1.4264966,25.8046736 C1.4264966,17.6872633 5.65605902,10.532568 12.0434353,6.39051241 L26.2946118,15.5720257 C26.2446844,16.0285077 26.5442487,16.5557255 27.1131831,17.1008631 C27.1700052,17.1553297 27.2296803,17.2102679 27.2919707,17.2647345 C27.4160759,17.3746109 27.5506421,17.484723 27.6954315,17.5948352 C27.9124967,17.7598855 28.1514349,17.9251716 28.410344,18.089043 C28.4462442,18.11215 28.4821443,18.1387938 28.5182823,18.1633156 C29.4526375,18.7940436 30.413383,19.9338339 30.933341,20.6018161 C31.1786984,20.917298 31.3258653,21.1266761 31.3258653,21.1266761 C31.3258653,21.1266761 31.3339488,21.142238 31.366996,21.2252347 C31.3779324,21.2528217 31.3919597,21.2879539 31.4090776,21.3325174 C31.4261956,21.377081 31.4468798,21.4310761 31.4718435,21.496153 C31.5464968,21.6923271 31.6580013,21.9903608 31.8237126,22.4428345 C31.9497198,22.7870823 32.1591771,23.122606 32.4207015,23.4590729 C32.4713421,23.5243856 32.5238847,23.5896984 32.5788048,23.6554827 C32.6739046,23.7696032 32.7730461,23.8841953 32.8788446,23.9999663 C33.015075,24.1487474 33.1589134,24.2996505 33.3082201,24.4522042 C33.4577645,24.6049936 33.6125394,24.7596693 33.770405,24.9176461 C34.1648313,25.3121163 34.5782776,25.7254495 34.9757946,26.1710853 C35.6115366,26.8836311 36.0535128,27.9524498 36.3366724,28.8434857 C36.6198319,29.73405 36.7436994,30.4465958 36.7436994,30.4465958 L34.7123682,32.7804073 C34.7832176,32.9169275 34.8792683,33.091645 34.9921993,33.2932422 C35.1327092,33.542704 35.3005603,33.834843 35.4841029,34.1496175 C35.5604205,34.2807147 35.63864,34.414877 35.7197126,34.5525761 C36.0791897,34.9036617 36.3837468,35.430408 36.9155922,35.430408 C36.9360387,35.430408 36.9571984,35.4297006 36.9783581,35.4278143 C39.0132555,36.2608469 41.6936426,37.4980169 44.040705,38.9499881 C43.8055708,39.2876339 43.5614021,39.6186776 43.30915,39.9431194 M24.7998811,1.20934724 C20.0807926,1.20934724 15.6653102,2.52409089 11.9060161,4.8024926 L11.7089218,4.68082694 C10.1823327,3.6794431 5.71739837,0.773850192 4.62660397,0.317132391 L4.52579821,0.255356416 L4.60449327,0.275162454 C4.60449327,0.275162454 4.45851512,0.161513523 4.26403608,0.0801672959 C4.22528293,0.0638980506 4.18439002,0.0490435222 4.14230837,0.0365468555 C4.06765505,0.014382956 3.98967324,0 3.91192917,0 C3.90218145,0 3.89267147,0 3.88292374,0.000707358493 C3.87293827,0.000943144658 3.86366604,0.00377257863 3.85415606,0.00471572329 C3.76214703,0.0139113837 3.67251549,0.0440920127 3.59310718,0.110112139 C3.59001644,0.112705787 3.5874012,0.116949938 3.58407271,0.119543585 C3.55815802,0.142179057 3.53319433,0.166936604 3.50989488,0.19735302 C3.48683319,0.227533649 3.46709998,0.257242705 3.45045752,0.286008617 C3.44974428,0.287659121 3.44926878,0.288838051 3.44926878,0.288838051 C3.40053014,0.375371574 3.37960819,0.454124153 3.3777062,0.526038933 C3.3767552,0.559284782 3.38055919,0.59017277 3.38674068,0.620117612 C3.43357731,0.854724846 3.66562076,0.992659752 3.66562076,0.992659752 L3.96994004,1.18906963 C3.97873676,1.20203787 3.985156,1.21146931 3.985156,1.21146931 L10.7343869,5.55983776 C4.25452611,10.0013417 0,17.4187029 0,25.8046736 C0,39.3666222 11.125247,50.4 24.7998811,50.4 C26.0994195,50.4 27.3754207,50.2990835 28.6212278,50.106682 C28.7550807,50.0774445 28.8879826,50.0503291 29.0196958,50.0276936 C35.3027001,48.9553382 40.7792583,45.5451629 44.5066939,40.7322957 C44.5040786,40.730881 44.5017012,40.7292305 44.4995614,40.7273442 C44.7518136,40.4003088 44.9959822,40.0671429 45.2320674,39.7278466 C45.2339694,39.7292613 45.2356337,39.7304403 45.2377734,39.731855 C46.5011739,37.9203099 47.5253984,35.9331041 48.2674144,33.8143296 C48.2647992,33.8032477 48.2631349,33.7916942 48.2605197,33.7806122 C49.1278296,31.2784494 49.6,28.5952029 49.6,25.8046736 C49.6,12.2424892 38.474753,1.20934724 24.7998811,1.20934724 Z" id="Fill-89"></path>
            </g>
        </g>
    </g>
</svg>