<?xml version="1.0" encoding="UTF-8"?>
<svg width="18px" height="21px" viewBox="0 0 18 21" version="1.1" xmlns="http://www.w3.org/2000/svg" xmlns:xlink="http://www.w3.org/1999/xlink">
    <!-- Generator: Sketch 63.1 (92452) - https://sketch.com -->
    <title></title>
    <desc>Created with Sketch.</desc>
    <g id="scheduling" stroke="none" stroke-width="1" fill="none" fill-rule="evenodd">
        <g id="Video" transform="translate(-1392.000000, -36.000000)" fill="#7A7A7A" fill-rule="nonzero">
            <path d="M1408.49607,52.750003 C1409.24291,52.750003 1409.74607,52.1406447 1409.74999,51.500006 C1409.7519,51.2050924 1409.64799,50.9035413 1409.41362,50.6519626 C1408.65896,49.8410362 1407.24684,48.6210989 1407.24684,44.6250224 C1407.24684,41.5898657 1405.11874,39.1601764 1402.24921,38.5640932 L1402.24921,37.7500387 C1402.24921,37.0598091 1401.68983,36.5000417 1400.99998,36.5000417 C1400.31013,36.5000417 1399.75075,37.0598091 1399.75075,37.7500387 L1399.75075,38.5640932 C1396.88122,39.1601764 1394.75312,41.5898657 1394.75312,44.6250224 C1394.75312,48.6210989 1393.341,49.8410362 1392.58634,50.6519626 C1392.35197,50.9039228 1392.24805,51.2050924 1392.24997,51.500006 C1392.25431,52.1406447 1392.75705,52.750003 1393.50389,52.750003 L1408.49607,52.750003 Z M1407.11206,50.8750075 L1394.8879,50.8750075 C1395.71679,49.7824426 1396.62304,47.9714957 1396.62732,44.6476816 C1396.62732,44.6398615 1396.62499,44.6328425 1396.62499,44.6250224 C1396.62499,42.2086081 1398.58356,40.2500328 1400.99998,40.2500328 C1403.41639,40.2500328 1405.37497,42.2086081 1405.37497,44.6250224 L1405.37264,44.6476816 L1405.37264,44.6476816 C1405.37691,47.9718772 1406.28317,49.7828241 1407.11206,50.8750075 Z M1400.99998,56.5 C1402.37968,56.5 1403.49879,55.3808408 1403.49879,54 L1398.50117,54 C1398.50117,55.3808408 1399.62028,56.5 1400.99998,56.5 Z" id=""></path>
        </g>
    </g>
</svg>