<?xml version="1.0" encoding="UTF-8"?>
<svg width="14px" height="21px" viewBox="0 0 14 21" version="1.1" xmlns="http://www.w3.org/2000/svg" xmlns:xlink="http://www.w3.org/1999/xlink">
    <!-- Generator: Sketch 63.1 (92452) - https://sketch.com -->
    <title>Password Copy 3</title>
    <desc>Created with Sketch.</desc>
    <g id="scheduling" stroke="none" stroke-width="1" fill="none" fill-rule="evenodd">
        <g id="Sign-Up" transform="translate(-635.000000, -512.000000)" fill="#7C7C7C">
            <g id="Password-Copy-3" transform="translate(635.000000, 512.000000)">
                <path d="M7.0517,10.927939 C6.0907,10.927939 5.3082,11.6972561 5.3082,12.6407195 C5.3082,13.2184756 5.5982,13.7388659 6.0892,14.0625732 L6.0892,16.8847683 L7.9877,16.8847683 L7.9877,14.0974024 C8.4987,13.7952073 8.8212,13.2399878 8.8212,12.6335488 C8.7912,11.6772805 8.0127,10.927939 7.0517,10.927939" id="Fill-1"></path>
                <g id="Group-5" transform="translate(0.000000, 0.000922)">
                    <path d="M5.34675,3.65830244 C5.34675,2.76810732 6.08375,2.0454 6.98975,2.0454 C7.89575,2.0454 8.63175,2.76810732 8.63175,3.65830244 L8.63175,6.89947317 C8.10825,6.77808293 7.57025,6.70996098 7.02575,6.70996098 C6.45275,6.70996098 5.89175,6.78166829 5.34675,6.91483902 L5.34675,3.65830244 Z M7.02575,18.9283756 C4.04125,18.9283756 1.61275,16.5435951 1.61275,13.611278 C1.61275,10.6794732 4.04125,8.29469268 7.02575,8.29469268 C10.00975,8.29469268 12.43675,10.6794732 12.43675,13.611278 C12.43675,16.5435951 10.00975,18.9283756 7.02575,18.9283756 L7.02575,18.9283756 Z M12.59075,9.49271707 C11.98925,8.73876585 11.56525,8.35205854 11.54575,8.33669268 L11.53925,8.32952195 C11.12525,7.98635122 10.67175,7.69900976 10.19375,7.46083902 L10.19375,3.65830244 C10.19375,1.92298537 8.75675,0.51137561 6.98975,0.51137561 C5.22325,0.51137561 3.78575,1.92298537 3.78575,3.65830244 L3.78575,7.50232683 C3.34025,7.73281463 2.91025,8.00632683 2.50675,8.33413171 C2.47625,8.36230244 1.74475,9.00459512 1.40425,9.49681463 C0.49975,10.692278 0.00025,12.1530585 0.00025,13.611278 C0.00025,17.4025463 3.14075,20.4880098 6.99975,20.4880098 C10.85825,20.4880098 13.99925,17.4025463 13.99925,13.611278 C13.99925,12.0956927 13.51175,10.6723024 12.59075,9.49271707 L12.59075,9.49271707 Z" id="Fill-3"></path>
                </g>
            </g>
        </g>
    </g>
</svg>