<?xml version="1.0" encoding="UTF-8"?>
<svg width="15px" height="15px" viewBox="0 0 15 15" version="1.1" xmlns="http://www.w3.org/2000/svg" xmlns:xlink="http://www.w3.org/1999/xlink">
    <!-- Generator: Sketch 63.1 (92452) - https://sketch.com -->
    <title>phone</title>
    <desc>Created with Sketch.</desc>
    <g id="scheduling" stroke="none" stroke-width="1" fill="none" fill-rule="evenodd">
        <g id="Sign-Up" transform="translate(-635.000000, -448.000000)" fill="#7C7C7C">
            <g id="phone" transform="translate(635.000000, 448.000000)">
                <g id="Phone">
                    <path d="M4.89471828,3.49132043 L5.29471828,3.89132043 C5.34542796,3.94301935 5.40301935,3.96387957 5.45884731,3.96310538 C5.51953548,3.96805161 5.58327742,3.94792258 5.6388043,3.89132043 C6.08181505,3.44830968 6.09471828,2.75583656 5.66461075,2.29992258 C5.50977204,2.13648172 5.34633118,1.98164301 5.1871914,1.82250323 C4.69686882,1.33218065 4.21514839,0.824653763 3.71192258,0.347234409 C3.24310538,-0.0957763441 2.55493333,-0.100077419 2.10332043,0.355836559 C2.00869677,0.450460215 2.00869677,0.6096 2.10332043,0.699922581 C3.03235269,1.62895484 3.96568602,2.5579871 4.89471828,3.49132043" id="Fill-1"></path>
                    <path d="M13.9769476,13.551777 C13.9950524,13.5077613 13.9983508,13.4583581 13.9794764,13.4108607 C13.9696911,13.3814314 13.9538586,13.3538712 13.9304398,13.3314785 C13.1388168,12.5398555 12.3435654,11.7445675 11.5519058,10.9529445 L11.2110681,10.6121068 C11.1770942,10.5787927 11.1394921,10.5613843 11.1018534,10.5561068 C11.0415288,10.5411539 10.974644,10.5542377 10.9178743,10.6121068 C10.7639476,10.7660335 10.6283455,10.9162953 10.4194817,10.9932586 C10.1555707,11.0958764 9.85871204,11.0958764 9.58017801,11.0628921 C8.77026702,10.9602743 7.99693194,10.5461382 7.32991623,10.091688 C6.47965445,9.51263037 5.71368586,8.77598115 5.09797906,7.95137382 C4.58855497,7.26969843 4.14143455,6.4964 3.96551832,5.65713298 C3.89954974,5.33828482 3.87389529,4.99744712 3.96918325,4.68226387 C4.04248168,4.42938429 4.20740314,4.26446283 4.38698429,4.08488168 C4.46761257,4.0042534 4.46761257,3.86865131 4.38698429,3.79168796 C3.59536126,3.00006492 2.8000733,2.20844188 2.00845026,1.41315393 C1.8948377,1.29954136 1.78122513,1.1859288 1.66761257,1.07231623 C1.58698429,0.991687958 1.4513822,0.991687958 1.37441885,1.07231623 C1.06290052,1.38383455 0.70373822,1.68435812 0.450858639,2.04718534 C0.113685864,2.52729005 -0.00359162304,3.13566702 -9.65421347e-06,3.71105969 C0.0110680628,5.33828482 0.817350785,6.93252565 1.68593717,8.26289215 C2.85504712,10.0477089 4.37598953,11.6199602 6.10216754,12.8733634 C7.47651309,13.8738869 9.08907853,14.7717927 10.8042984,14.9696984 C11.4163037,15.0393319 12.0503717,14.9990178 12.614733,14.7424733 C13.080178,14.5335728 13.4136859,14.1414262 13.7655183,13.7895937 L13.9304398,13.6246723 C13.9457225,13.6093895 13.9571571,13.5917613 13.9666492,13.5732901 C13.9687016,13.5695152 13.9707539,13.5657403 13.9725864,13.5618555 C13.9740524,13.5585204 13.9756649,13.555222 13.9769476,13.551777" id="Fill-4"></path>
                    <path d="M14.6696652,11.3128258 C14.5044478,11.1407828 14.3305348,10.9773419 14.1609696,10.8096 C13.6696652,10.3235785 13.1914043,9.82895484 12.6914043,9.35583656 C12.226187,8.91712688 11.5305348,8.92142796 11.074013,9.37304086 C10.9783609,9.46766452 10.9783609,9.6268043 11.074013,9.71712688 C12.0131435,10.6461591 12.9522739,11.5751914 13.8957522,12.5085247 C14.0305348,12.6418581 14.1653174,12.7751914 14.3001,12.9085247 C14.3957522,13.0031484 14.5566217,13.0031484 14.6479261,12.9085247 C14.6566217,12.8999226 14.6653174,12.8956215 14.674013,12.8870194 C14.689013,12.8721806 14.7013609,12.8567828 14.7114913,12.8411269 C15.0996652,12.3909333 15.0871,11.7508043 14.6696652,11.3128258" id="Fill-7"></path>
                </g>
            </g>
        </g>
    </g>
</svg>