<?xml version="1.0" encoding="UTF-8"?>
<svg width="264px" height="45px" viewBox="0 0 264 45" version="1.1" xmlns="http://www.w3.org/2000/svg" xmlns:xlink="http://www.w3.org/1999/xlink">
    <!-- Generator: Sketch 63.1 (92452) - https://sketch.com -->
    <title>Group 12</title>
    <desc>Created with Sketch.</desc>
    <g id="scheduling" stroke="none" stroke-width="1" fill="none" fill-rule="evenodd">
        <g id="History-detail" transform="translate(-1008.000000, -636.000000)">
            <g id="Group-12" transform="translate(1008.000000, 636.000000)">
                <g id="start">
                    <g id="Button">
                        <rect id="Rectangle-4-Copy-3" fill="#E02020" x="0" y="3.13474736e-15" width="264" height="45" rx="5"></rect>
                        <text id="Log-In" font-family="ProximaNova-Bold, Proxima Nova" font-size="16" font-weight="bold" fill="#FFFFFF">
                            <tspan x="48.4340299" y="28">Remove from Favorites</tspan>
                        </text>
                    </g>
                </g>
                <path d="M27.9642857,32 C28.9697178,32 29.7857143,31.2020035 29.7857143,30.21875 L29.7857143,17.75 L30.3928571,17.75 C30.7280012,17.75 31,17.4840012 31,17.15625 L31,16.5625 C31,16.2347488 30.7280012,15.96875 30.3928571,15.96875 L27.265686,15.96875 L25.9755075,13.8646412 C25.6826085,13.3873653 24.9829341,13 24.4137377,13 L20.5870034,13 C20.017807,13 19.3181327,13.3873653 19.0252337,13.8646412 L17.734314,15.96875 L14.6071429,15.96875 C14.2719988,15.96875 14,16.2347488 14,16.5625 L14,17.15625 C14,17.4840012 14.2719988,17.75 14.6071429,17.75 L15.2142857,17.75 L15.2142857,30.21875 C15.2142857,31.2020035 16.0302822,32 17.0357143,32 L27.9642857,32 Z M25.1414642,15.96875 L19.8585358,15.96875 L20.5207084,14.8892441 C20.5573207,14.8296299 20.6447754,14.78125 20.7158879,14.78125 L24.2837415,14.78125 C24.354854,14.78125 24.4422716,14.8296299 24.4789211,14.8892441 L25.1414642,15.96875 Z M27.9642857,30.21875 L17.0357143,30.21875 L17.0357143,17.75 L27.9642857,17.75 L27.9642857,30.21875 Z M25.0803571,28.4375 C25.3317152,28.4375 25.5357143,28.2380009 25.5357143,27.9921875 L25.5357143,19.9765625 C25.5357143,19.7307491 25.3317152,19.53125 25.0803571,19.53125 L24.1696429,19.53125 C23.9182848,19.53125 23.7142857,19.7307491 23.7142857,19.9765625 L23.7142857,27.9921875 C23.7142857,28.2380009 23.9182848,28.4375 24.1696429,28.4375 L25.0803571,28.4375 Z M20.8303571,28.4375 C21.0817152,28.4375 21.2857143,28.2380009 21.2857143,27.9921875 L21.2857143,19.9765625 C21.2857143,19.7307491 21.0817152,19.53125 20.8303571,19.53125 L19.9196429,19.53125 C19.6682848,19.53125 19.4642857,19.7307491 19.4642857,19.9765625 L19.4642857,27.9921875 C19.4642857,28.2380009 19.6682848,28.4375 19.9196429,28.4375 L20.8303571,28.4375 Z" id="Delete" fill="#FFFFFF" fill-rule="nonzero"></path>
            </g>
        </g>
    </g>
</svg>