<?xml version="1.0" encoding="UTF-8"?>
<svg width="22px" height="23px" viewBox="0 0 22 23" version="1.1" xmlns="http://www.w3.org/2000/svg" xmlns:xlink="http://www.w3.org/1999/xlink">
    <!-- Generator: Sketch 63.1 (92452) - https://sketch.com -->
    <title>setting</title>
    <desc>Created with Sketch.</desc>
    <g id="scheduling" stroke="none" stroke-width="1" fill="none" fill-rule="evenodd">
        <g id="Survey" transform="translate(-657.000000, -34.000000)" fill="#8A8A8A" stroke="#8A8A8A" stroke-width="0.5">
            <g id="Group-4" transform="translate(382.000000, 35.000000)">
                <g id="setting" transform="translate(275.650000, 0.000000)">
                    <path d="M10.2694043,14.71911 C8.20754192,14.71911 6.53027559,13.0418437 6.53027559,10.9799812 C6.53027559,8.91811882 8.20754192,7.2408525 10.2694043,7.2408525 C12.3312668,7.2408525 14.0085331,8.91811882 14.0085331,10.9799812 C14.0085331,13.0418437 12.3312668,14.71911 10.2694043,14.71911 M10.2694043,6.17253 C7.61854011,6.17253 5.46195309,8.32911702 5.46195309,10.9799812 C5.46195309,13.6308455 7.61854011,15.7874325 10.2694043,15.7874325 C12.9202686,15.7874325 15.0768556,13.6308455 15.0768556,10.9799812 C15.0768556,8.32911702 12.9202686,6.17253 10.2694043,6.17253" id="Fill-1"></path>
                    <g id="Group-5" transform="translate(0.000000, 0.118703)">
                        <path d="M12.1092931,18.5769413 L12.1092931,20.1200738 C12.1092931,20.3570039 11.9307645,20.5355325 11.6938343,20.5355325 L8.84497434,20.5355325 C8.60804415,20.5355325 8.42951559,20.3570039 8.42951559,20.1200738 L8.42951559,18.5778909 C8.43283926,18.3504569 8.27116646,18.127771 8.05370348,18.0601106 C6.93386409,17.7165855 5.89260576,17.103131 5.04245846,16.2857456 C4.94322317,16.1929202 4.80861453,16.144727 4.67448071,16.144727 C4.58497902,16.144727 4.49547734,16.1660935 4.41689628,16.2102508 L3.06653664,16.9597384 C2.85975689,17.0746424 2.61665417,17.0046079 2.50175015,16.7973534 L1.12195229,14.3046009 C1.00419941,14.0923608 1.06948578,13.8549558 1.27674035,13.7398144 L2.62662518,12.9908016 C2.82794462,12.8813579 2.94284864,12.6304208 2.8937058,12.4070227 C2.78473691,11.8868684 2.73179559,11.3811957 2.73179559,10.8612788 C2.73179559,10.3437358 2.78616134,9.82120745 2.89394321,9.30793784 C2.93976237,9.08382752 2.82746981,8.84167442 2.62709999,8.7319933 L1.27674035,7.98274313 C1.06948578,7.8676017 1.00419941,7.6301967 1.12195229,7.41795663 L2.50175015,4.92520413 C2.61665417,4.71794956 2.85951948,4.6481525 3.06653664,4.76281911 L4.41713369,5.5123067 C4.61584167,5.62127559 4.87936122,5.58590225 5.04317067,5.42897754 C5.89260576,4.61206693 6.93362669,3.99861241 8.05394088,3.65484997 C8.27116646,3.58718955 8.42927819,3.37305024 8.42951559,3.14561625 L8.42951559,1.60248375 C8.42951559,1.36555356 8.60804415,1.187025 8.84497434,1.187025 L11.6938343,1.187025 C11.9307645,1.187025 12.1092931,1.36555356 12.1092931,1.60248375 L12.1092931,3.14561625 C12.1092931,3.37305024 12.2671674,3.58718955 12.4851052,3.65484997 C13.605182,3.99861241 14.6462029,4.61206693 15.4958754,5.42897754 C15.6596849,5.58590225 15.9227296,5.621513 16.1219124,5.5123067 L17.472272,4.76281911 C17.5729318,4.70702894 17.6856991,4.69278463 17.7892077,4.72246026 C17.8929537,4.75237329 17.981031,4.82430701 18.0370585,4.92520413 L19.4168564,7.41795663 C19.5346093,7.6301967 19.4695603,7.8676017 19.2620683,7.98274313 L17.9119461,8.7319933 C17.7115763,8.84143701 17.5992837,9.08382752 17.6448655,9.30817524 C17.7526473,9.82120745 17.8070131,10.3437358 17.8070131,10.8612788 C17.8070131,11.3811957 17.7540718,11.8868684 17.6451029,12.4065479 C17.59596,12.6304208 17.7108641,12.8813579 17.9117087,12.9905642 L19.2620683,13.7398144 C19.4695603,13.8549558 19.5346093,14.0923608 19.4168564,14.3046009 L18.0370585,16.7973534 C17.981031,16.8984879 17.8929537,16.9701842 17.7892077,17.0000972 C17.6856991,17.0295355 17.5729318,17.0155286 17.472272,16.9597384 L16.1221498,16.2104882 C15.9248663,16.0996201 15.6613467,16.1311949 15.4958754,16.2862204 C14.6462029,17.103131 13.6049446,17.7165855 12.4848678,18.060348 C12.2640812,18.1287206 12.1059694,18.346421 12.1092931,18.5769413 M19.7798486,12.8051509 L18.7404896,12.2244583 C18.806963,11.8187331 18.8753356,11.349146 18.8753356,10.8612788 C18.8753356,10.3902672 18.8112362,9.92519084 18.7404896,9.49097709 L19.7796112,8.91740661 C20.1236111,8.72653299 20.3726489,8.41007212 20.4806682,8.02618824 C20.5879753,7.64372879 20.5421561,7.24393877 20.3517573,6.90041373 L18.971722,4.40766123 C18.5745435,3.69188516 17.6700304,3.43192668 16.9547291,3.82815563 L15.9082479,4.40884826 C15.065935,3.6705187 14.1476524,3.1195017 13.1776156,2.76980414 L13.1776156,1.60248375 C13.1776156,0.78438612 12.511932,0.1187025 11.6938343,0.1187025 L8.84497434,0.1187025 C8.02687671,0.1187025 7.36119309,0.78438612 7.36119309,1.60248375 L7.36119309,2.76980414 C6.39115626,3.1195017 5.47287372,3.6705187 4.63079819,4.40884826 L3.58407954,3.82815563 C2.86901568,3.43168927 1.96402782,3.69164775 1.56708666,4.40766123 L0.187051399,6.90041373 C-0.210364571,7.61713943 0.0462702345,8.52212728 0.759434854,8.91740661 L1.79831913,9.49097709 C1.72757244,9.92424122 1.66347309,10.3888428 1.66347309,10.8612788 C1.66347309,11.349146 1.73184573,11.8187331 1.79831913,12.2244583 L0.75919745,12.8051509 C0.0462702345,13.2004302 -0.210364571,14.1051807 0.187051399,14.8221438 L1.56708666,17.3148963 C1.96402782,18.0309098 2.86901568,18.2908682 3.58407954,17.8944019 L4.63079819,17.3137092 C5.46527676,18.0444418 6.3835593,18.5930848 7.36119309,18.9451564 L7.36119309,20.1200738 C7.36119309,20.9381714 8.02687671,21.603855 8.84497434,21.603855 L11.6938343,21.603855 C12.511932,21.603855 13.1776156,20.9381714 13.1776156,20.1200738 L13.1776156,18.9451564 C14.1552494,18.5930848 15.0735319,18.0444418 15.9082479,17.3137092 L16.9547291,17.8944019 C17.6702678,18.291343 18.5743061,18.0309098 18.971722,17.3148963 L20.3517573,14.8221438 C20.5421561,14.4783813 20.5879753,14.0788287 20.4806682,13.6963693 C20.3726489,13.3124854 20.1236111,12.9960245 19.7798486,12.8051509" id="Fill-3"></path>
                    </g>
                </g>
            </g>
        </g>
    </g>
</svg>