<?xml version="1.0" encoding="UTF-8"?>
<svg width="264px" height="45px" viewBox="0 0 264 45" version="1.1" xmlns="http://www.w3.org/2000/svg" xmlns:xlink="http://www.w3.org/1999/xlink">
    <!-- Generator: Sketch 63.1 (92452) - https://sketch.com -->
    <title>Group 11</title>
    <desc>Created with Sketch.</desc>
    <g id="scheduling" stroke="none" stroke-width="1" fill="none" fill-rule="evenodd">
        <g id="History-detail" transform="translate(-711.000000, -636.000000)">
            <g id="Group-11" transform="translate(711.000000, 636.000000)">
                <g id="Button-8">
                    <g id="Button">
                        <rect id="Rectangle-4-Copy-3" fill="#29AAE3" x="0" y="3.13474736e-15" width="264" height="45" rx="5"></rect>
                        <text id="Log-In" font-family="ProximaNova-Bold, Proxima Nova" font-size="16" font-weight="bold" fill="#FFFFFF">
                            <tspan x="111.30603" y="28">Share</tspan>
                        </text>
                    </g>
                </g>
                <path d="M27.2222222,14.924 C28.0102712,14.924 28.7237156,15.24342 29.2401478,15.7598522 C29.75658,16.2762844 30.076,16.9897288 30.076,17.7777778 C30.076,18.5658268 29.75658,19.2792712 29.2401478,19.7957034 C28.7237156,20.3121356 28.0102712,20.6315556 27.2222222,20.6315556 C26.1123245,20.6315556 25.1505417,19.9978254 24.6783953,19.072899 L24.6783953,19.072899 L20.4196936,21.2017108 L20.5688069,21.9011193 C20.6099811,22.0942449 20.6315556,22.2945987 20.6315556,22.5 C20.6315556,22.7113109 20.6087204,22.9172797 20.5652046,23.1155312 L20.5652046,23.1155312 L20.4119371,23.8137949 L24.6571217,25.9696133 C25.1212486,25.0216706 26.095392,24.3684444 27.2222222,24.3684444 C28.0102712,24.3684444 28.7237156,24.6878644 29.2401478,25.2042966 C29.75658,25.7207288 30.076,26.4341732 30.076,27.2222222 C30.076,28.0102712 29.75658,28.7237156 29.2401478,29.2401478 C28.7237156,29.75658 28.0102712,30.076 27.2222222,30.076 C26.4341732,30.076 25.7207288,29.75658 25.2042966,29.2401478 C24.6878644,28.7237156 24.3684444,28.0102712 24.3684444,27.2222222 C24.3684444,27.0285813 24.387617,26.8394263 24.424314,26.6565835 L24.424314,26.6565835 L24.5623998,25.9685712 L20.3133501,23.8111465 C19.8383256,24.7273726 18.881249,25.3537778 17.7777778,25.3537778 C16.9897288,25.3537778 16.2762844,25.0343578 15.7598522,24.5179256 C15.24342,24.0014934 14.924,23.288049 14.924,22.5 C14.924,21.711951 15.24342,20.9985066 15.7598522,20.4820744 C16.2762844,19.9656422 16.9897288,19.6462222 17.7777778,19.6462222 C18.8877493,19.6462222 19.8495863,20.2800366 20.3216988,21.2050632 L20.3216988,21.2050632 L24.5799347,19.0751119 L24.4310574,18.3760214 C24.3899715,18.1830923 24.3684444,17.9829532 24.3684444,17.7777778 C24.3684444,16.9897288 24.6878644,16.2762844 25.2042966,15.7598522 C25.7207288,15.24342 26.4341732,14.924 27.2222222,14.924 Z M27.2222222,24.4093333 C26.4454644,24.4093333 25.7422422,24.7241766 25.2332094,25.2332094 C24.7241766,25.7422422 24.4093333,26.4454644 24.4093333,27.2222222 C24.4093333,27.99898 24.7241766,28.7022023 25.2332094,29.211235 C25.7422422,29.7202678 26.4454644,30.0351111 27.2222222,30.0351111 C27.99898,30.0351111 28.7022023,29.7202678 29.211235,29.211235 C29.7202678,28.7022023 30.0351111,27.99898 30.0351111,27.2222222 C30.0351111,26.4454644 29.7202678,25.7422422 29.211235,25.2332094 C28.7022023,24.7241766 27.99898,24.4093333 27.2222222,24.4093333 Z M17.7777778,19.6871111 C17.00102,19.6871111 16.2977977,20.0019544 15.788765,20.5109872 C15.2797322,21.02002 14.9648889,21.7232422 14.9648889,22.5 C14.9648889,23.2767578 15.2797322,23.97998 15.788765,24.4890128 C16.2977977,24.9980456 17.00102,25.3128889 17.7777778,25.3128889 C18.5545356,25.3128889 19.2577578,24.9980456 19.7667906,24.4890128 C20.2758234,23.97998 20.5906667,23.2767578 20.5906667,22.5 C20.5906667,21.7232422 20.2758234,21.02002 19.7667906,20.5109872 C19.2577578,20.0019544 18.5545356,19.6871111 17.7777778,19.6871111 Z M27.2222222,14.9648889 C26.4454644,14.9648889 25.7422422,15.2797322 25.2332094,15.788765 C24.7241766,16.2977977 24.4093333,17.00102 24.4093333,17.7777778 C24.4093333,18.5545356 24.7241766,19.2577578 25.2332094,19.7667906 C25.7422422,20.2758234 26.4454644,20.5906667 27.2222222,20.5906667 C27.99898,20.5906667 28.7022023,20.2758234 29.211235,19.7667906 C29.7202678,19.2577578 30.0351111,18.5545356 30.0351111,17.7777778 C30.0351111,17.00102 29.7202678,16.2977977 29.211235,15.788765 C28.7022023,15.2797322 27.99898,14.9648889 27.2222222,14.9648889 Z" id="Combined-Shape" stroke="#FFFFFF" stroke-width="1.848" fill-rule="nonzero"></path>
            </g>
        </g>
    </g>
</svg>