<?xml version="1.0" encoding="UTF-8"?>
<svg width="56px" height="56px" viewBox="0 0 56 56" version="1.1" xmlns="http://www.w3.org/2000/svg" xmlns:xlink="http://www.w3.org/1999/xlink">
    <!-- Generator: Sketch 63.1 (92452) - https://sketch.com -->
    <title>Group 8</title>
    <desc>Created with Sketch.</desc>
    <g id="scheduling" stroke="none" stroke-width="1" fill="none" fill-rule="evenodd">
        <g id="History-detail" transform="translate(-1107.000000, -409.000000)">
            <g id="Group-8" transform="translate(1107.000000, 409.000000)">
                <g id="Group-6-Copy-4" fill="#FFFFFF" opacity="0.0980515253">
                    <circle id="Oval-Copy" cx="28" cy="28" r="28"></circle>
                </g>
                <path d="M28.5,38.0522002 L28.3743169,38.0522002 L32.773224,30.4482712 L35.4125683,35.0671867 C33.6844262,36.920723 31.2336066,38.0522002 28.5,38.0522002 L28.5,38.0522002 Z M20.1734973,33.1501796 L28.9398907,33.1501796 L26.2691257,37.7694094 C23.6612022,37.1720925 21.4617486,35.4439268 20.1734973,33.1501796 L20.1734973,33.1501796 Z M18.9480874,28.5001571 C18.9480874,26.7088348 19.4508197,25.0438257 20.2991803,23.629872 L24.6980874,31.233801 L19.3565574,31.233801 C19.0737705,30.3540076 18.9480874,29.4427929 18.9480874,28.5001571 L18.9480874,28.5001571 Z M28.5,18.948114 L28.6256831,18.948114 L24.226776,26.5517288 L21.5874317,21.9331275 C23.3155738,20.079277 25.7663934,18.948114 28.5,18.948114 L28.5,18.948114 Z M31.6420765,28.5001571 L30.0710383,31.2023798 L26.9289617,31.2023798 L25.3579235,28.5001571 L26.9289617,25.7979344 L30.0710383,25.7979344 L31.6420765,28.5001571 Z M36.8265027,23.8498204 L28.0601093,23.8498204 L30.7308743,19.2309048 C33.3387978,19.8279075 35.5382514,21.5560732 36.8265027,23.8498204 L36.8265027,23.8498204 Z M38.0519126,28.5001571 C38.0519126,30.2911652 37.5491803,31.9564885 36.7008197,33.3704422 L32.3019126,25.766199 L37.6434426,25.766199 C37.9262295,26.6463066 38.0519126,27.5575213 38.0519126,28.5001571 L38.0519126,28.5001571 Z M40,28.5001571 C40,22.1527616 34.8469945,17 28.5,17 C22.1530055,17 17,22.1527616 17,28.5001571 C17,34.8472384 22.1530055,40 28.5,40 C34.8469945,40 40,34.8472384 40,28.5001571 L40,28.5001571 Z" id="Fill-1" fill="#29AAE3"></path>
            </g>
        </g>
    </g>
</svg>