<?xml version="1.0" encoding="UTF-8"?>
<svg width="56px" height="56px" viewBox="0 0 56 56" version="1.1" xmlns="http://www.w3.org/2000/svg" xmlns:xlink="http://www.w3.org/1999/xlink">
    <!-- Generator: Sketch 63.1 (92452) - https://sketch.com -->
    <title>Group 2</title>
    <desc>Created with Sketch.</desc>
    <g id="scheduling" stroke="none" stroke-width="1" fill="none" fill-rule="evenodd">
        <g id="History-detail" transform="translate(-714.000000, -409.000000)">
            <g id="Group-2" transform="translate(714.000000, 409.000000)">
                <g id="Group-6-Copy-2" fill="#FFFFFF" opacity="0.0980515253">
                    <circle id="Oval-Copy" cx="28" cy="28" r="28"></circle>
                </g>
                <path d="M24.667625,32.375 C24.3159167,32.375 23.977625,32.1814167 23.8089583,31.8450417 C23.57225,31.371625 23.7639167,30.7956667 24.2373333,30.5589583 L27.5416667,28.90775 L27.5416667,22.7916667 C27.5416667,22.2626667 27.971,21.8333333 28.5,21.8333333 C29.029,21.8333333 29.4583333,22.2626667 29.4583333,22.7916667 L29.4583333,29.5 C29.4583333,29.8632083 29.25325,30.1947917 28.928375,30.3577083 L25.0950417,32.274375 C24.958,32.3424167 24.811375,32.375 24.667625,32.375 M23.5741667,20.1275 C23.3729167,19.63875 23.6029167,19.0733333 24.0916667,18.8720833 C24.5804167,18.6708333 25.1458333,18.9008333 25.3470833,19.3895833 C25.5483333,19.8783333 25.3183333,20.44375 24.8295833,20.645 C24.705,20.6929167 24.59,20.7216667 24.4654167,20.7216667 C24.0916667,20.7216667 23.7275,20.4916667 23.5741667,20.1275 M20.3733333,22.7245833 C19.9995833,22.3508333 19.9995833,21.7470833 20.3733333,21.3733333 C20.7470833,20.9995833 21.3508333,20.9995833 21.7245833,21.3733333 C22.0983333,21.7470833 22.0983333,22.3508333 21.7245833,22.7245833 C21.5329167,22.9066667 21.2933333,23.0025 21.0441667,23.0025 C20.8045833,23.0025 20.5554167,22.9066667 20.3733333,22.7245833 M18.3895833,26.3470833 C17.9008333,26.1458333 17.6708333,25.59 17.8720833,25.10125 C18.0733333,24.6125 18.63875,24.3729167 19.1275,24.5741667 C19.61625,24.7754167 19.84625,25.3408333 19.645,25.8295833 C19.4916667,26.2033333 19.1370833,26.42375 18.75375,26.42375 C18.63875,26.42375 18.5141667,26.395 18.3895833,26.3470833 M17,29.5 C17,28.971 17.4293333,28.5416667 17.9583333,28.5416667 C18.4873333,28.5416667 18.9166667,28.971 18.9166667,29.5 C18.9166667,34.78425 23.21575,39.0833333 28.5,39.0833333 C33.78425,39.0833333 38.0833333,34.78425 38.0833333,29.5 C38.0833333,24.21575 33.78425,19.9166667 28.5,19.9166667 C27.971,19.9166667 27.5416667,19.4873333 27.5416667,18.9583333 C27.5416667,18.4293333 27.971,18 28.5,18 C34.8412917,18 40,23.1587083 40,29.5 C40,35.8412917 34.8412917,41 28.5,41 C22.1587083,41 17,35.8412917 17,29.5 Z" id="Fill-1" fill="#29AAE3" transform="translate(28.500000, 29.500000) scale(-1, 1) translate(-28.500000, -29.500000) "></path>
            </g>
        </g>
    </g>
</svg>