<?xml version="1.0" encoding="UTF-8"?>
<svg width="15px" height="17px" viewBox="0 0 15 17" version="1.1" xmlns="http://www.w3.org/2000/svg" xmlns:xlink="http://www.w3.org/1999/xlink">
    <!-- Generator: Sketch 63.1 (92452) - https://sketch.com -->
    <title>User</title>
    <desc>Created with Sketch.</desc>
    <g id="scheduling" stroke="none" stroke-width="1" fill="none" fill-rule="evenodd">
        <g id="Sign-Up" transform="translate(-635.000000, -319.000000)" fill="#7C7C7C">
            <g id="User" transform="translate(635.000000, 319.000000)">
                <path d="M14.1954,16.99845 C13.7534,16.99845 13.3924,16.65095 13.3924,16.22445 C13.3924,12.83645 10.8584,10.28145 7.4994,10.28145 C4.1399,10.28145 1.6059,12.83645 1.6059,16.22445 C1.6059,16.65095 1.2464,16.99845 0.8029,16.99845 C0.3599,16.99845 -0.0001,16.65095 -0.0001,16.22445 C-0.0001,12.66045 2.3679,9.74345 5.6984,8.95545 C3.9084,8.26645 2.6784,6.59745 2.6784,4.65095 C2.6784,2.08645 4.8414,-5e-05 7.4994,-5e-05 C10.1584,-5e-05 12.3204,2.08645 12.3204,4.65095 C12.3204,6.56445 11.0654,8.25545 9.2879,8.95295 C12.6234,9.73545 14.9999,12.65645 14.9999,16.22445 C14.9999,16.65095 14.6389,16.99845 14.1954,16.99845 M7.4994,1.54995 C5.7269,1.54995 4.2854,2.94045 4.2854,4.65095 C4.2854,6.35995 5.7269,7.75045 7.4994,7.75045 C9.2714,7.75045 10.7144,6.35995 10.7144,4.65095 C10.7144,2.94045 9.2714,1.54995 7.4994,1.54995" id="Fill-1"></path>
            </g>
        </g>
    </g>
</svg>