<?xml version="1.0" encoding="UTF-8"?>
<svg width="56px" height="56px" viewBox="0 0 56 56" version="1.1" xmlns="http://www.w3.org/2000/svg" xmlns:xlink="http://www.w3.org/1999/xlink">
    <!-- Generator: Sketch 63.1 (92452) - https://sketch.com -->
    <title>Group 7</title>
    <desc>Created with Sketch.</desc>
    <g id="scheduling" stroke="none" stroke-width="1" fill="none" fill-rule="evenodd">
        <g id="History-detail" transform="translate(-911.000000, -409.000000)">
            <g id="Group-7" transform="translate(911.000000, 409.000000)">
                <g id="Group-6-Copy-3" fill="#FFFFFF" opacity="0.0980515253">
                    <circle id="Oval-Copy" cx="28" cy="28" r="28"></circle>
                </g>
                <g id="Group-5" transform="translate(19.000000, 18.000000)" fill="#29AAE3">
                    <path d="M18.0928,11.0528 C18.0928,15.6992 14.5728,19.5712 9.9264,20.064 L9.9264,21.8944 L10.9824,21.8944 C11.4752,21.8944 11.8976,22.2464 11.8976,22.7392 C11.8976,23.232 11.4752,23.584 10.9824,23.584 L7.1104,23.584 C6.6176,23.584 6.2656,23.232 6.2656,22.7392 C6.2656,22.2464 6.6176,21.8944 7.1104,21.8944 L8.1664,21.8944 L8.1664,20.064 C3.5904,19.5712 0,15.6992 0,11.0528 L1.76,11.0528 C1.76,15.0656 4.9984,18.3744 9.0816,18.3744 C13.0944,18.3744 16.4032,15.0656 16.4032,11.0528 L18.0928,11.0528 Z" id="Fill-1"></path>
                    <path d="M9.0816,1.76 C6.8992,1.76 5.1392,3.52 5.1392,5.632 L5.1392,10.7008 C5.1392,12.8832 6.8992,14.6432 9.0816,14.6432 C11.1936,14.6432 12.9536,12.8832 12.9536,10.7008 L12.9536,5.632 C12.9536,3.52 11.1936,1.76 9.0816,1.76 M9.0816,0 C12.1792,0 14.7136,2.5344 14.7136,5.632 L14.7136,10.7008 C14.7136,13.8688 12.1792,16.4032 9.0816,16.4032 C5.9136,16.4032 3.3792,13.8688 3.3792,10.7008 L3.3792,5.632 C3.3792,2.5344 5.9136,0 9.0816,0" id="Fill-3"></path>
                </g>
            </g>
        </g>
    </g>
</svg>